<svg xmlns="http://www.w3.org/2000/svg" viewBox="0 0 1080 236.25">
    <defs>
        <style>
            .cls-1{
                fill:#ffffff;
            }
            #Calque_2 {
                padding: 50px;
            }
        </style>
    </defs>
    <g id="Calque_2" data-name="Calque 2">
        <g id="VooDoo">
            <polygon id="Line" class="cls-1" points="25.31 50.63 39.91 84.38 1040.09 84.38 1054.69 50.63 25.31 50.63"/>
            <g id="V">
                <polygon class="cls-1" points="0 0 16.88 33.75 118.13 33.75 219.38 33.75 236.25 0 0 0"/>
                <polygon class="cls-1" points="50.63 101.25 118.13 236.25 185.63 101.25 151.88 101.25 118.13 170.44 83.86 100.94 50.63 101.25"/>
            </g>
            <g id="O">
                <polygon class="cls-1" points="270 0 253.13 33.75 286.88 33.75 303.75 0 270 0"/>
                <polygon class="cls-1" points="219.38 101.25 151.88 236.25 185.63 236.25 253.13 101.25 219.38 101.25"/>
                <polygon class="cls-1" points="202.5 236.25 219.38 202.5 253.13 202.5 236.25 236.25 202.5 236.25"/>
                <polygon class="cls-1" points="253.13 236.25 320.63 101.25 354.38 101.25 286.88 236.25 253.13 236.25"/>
                <polygon class="cls-1" points="303.75 33.75 320.63 0 354.38 0 337.5 33.75 303.75 33.75"/>
                <polygon class="cls-1" points="354.38 33.75 371.25 0 405 0 388.13 33.75 354.38 33.75"/>
            </g>
            <g id="O-2" data-name="O">
                <polygon class="cls-1" points="438.75 0 421.88 33.75 455.63 33.75 472.5 0 438.75 0"/>
                <polygon class="cls-1" points="388.13 101.25 320.63 236.25 354.38 236.25 421.88 101.25 388.13 101.25"/>
                <polygon class="cls-1" points="371.25 236.25 388.13 202.5 421.88 202.5 405 236.25 371.25 236.25"/>
                <polygon class="cls-1" points="421.88 236.25 489.38 101.25 523.13 101.25 455.63 236.25 421.88 236.25"/>
                <polygon class="cls-1" points="472.5 33.75 489.38 0 523.13 0 506.25 33.75 472.5 33.75"/>
                <polygon class="cls-1" points="523.13 33.75 540 0 573.75 0 556.88 33.75 523.13 33.75"/>
            </g>
            <g id="D">
                <polygon class="cls-1" points="607.5 0 590.63 33.75 624.38 33.75 641.25 0 607.5 0"/>
                <polygon class="cls-1" points="556.88 101.25 489.38 236.25 523.13 236.25 590.63 101.25 556.88 101.25"/>
                <polygon class="cls-1" points="540 236.25 556.88 202.5 607.5 202.5 658.13 101.25 691.88 101.25 624.37 236.25 540 236.25"/>
                <polygon class="cls-1" points="641.25 33.75 658.13 0 742.5 0 725.63 33.75 641.25 33.75"/>
            </g>
            <g id="O-3" data-name="O">
                <polygon class="cls-1" points="776.25 0 759.38 33.75 793.13 33.75 810 0 776.25 0"/>
                <polygon class="cls-1" points="725.63 101.25 658.13 236.25 691.88 236.25 759.38 101.25 725.63 101.25"/>
                <polygon class="cls-1" points="708.75 236.25 725.63 202.5 759.38 202.5 742.5 236.25 708.75 236.25"/>
                <polygon class="cls-1" points="759.38 236.25 826.88 101.25 860.63 101.25 793.13 236.25 759.38 236.25"/>
                <polygon class="cls-1" points="810 33.75 826.88 0 860.63 0 843.75 33.75 810 33.75"/>
                <polygon class="cls-1" points="860.63 33.75 877.5 0 911.25 0 894.38 33.75 860.63 33.75"/>
            </g>
            <g id="O-4" data-name="O">
                <polygon class="cls-1" points="945 0 928.13 33.75 961.88 33.75 978.75 0 945 0"/>
                <polygon class="cls-1" points="894.38 101.25 826.88 236.25 860.63 236.25 928.13 101.25 894.38 101.25"/>
                <polygon class="cls-1" points="877.5 236.25 894.38 202.5 928.13 202.5 911.25 236.25 877.5 236.25"/>
                <polygon class="cls-1" points="928.13 236.25 995.63 101.25 1029.38 101.25 961.88 236.25 928.13 236.25"/>
                <polygon class="cls-1" points="978.75 33.75 995.63 0 1029.38 0 1012.5 33.75 978.75 33.75"/>
                <polygon class="cls-1" points="1029.38 33.75 1046.25 0 1080 0 1063.13 33.75 1029.38 33.75"/>
            </g>
        </g>
    </g>
</svg>